# xmcd CD database file
#
# Track frame offsets:
#	150
#	18300
#	41161
#	68128
#	82436
#	104251
#	129242
#	145132
#	172955
#	200894
#
# Disc length: 3099 seconds
#
# Revision: 0
# Processed by: cddbd v1.5.2PL0 Copyright (c) Steve Scherf et al.
# Submitted via: CDex 1.51
#
DISCID=8f0c190a
DTITLE=Josefine Cronholm - Songs of the Falling Feather
DYEAR=2010
DGENRE=Jazz
TTITLE0=Paralysed
TTITLE1=Seagulls
TTITLE2=Fountain
TTITLE3=Mermaids
TTITLE4=Winter Princess
TTITLE5=Angel
TTITLE6=Quiet
TTITLE7=Sailor
TTITLE8=Lonely is The Heart
TTITLE9=Mystery
EXTD=YEAR: 2010
EXTT0=
EXTT1=
EXTT2=
EXTT3=
EXTT4=
EXTT5=
EXTT6=
EXTT7=
EXTT8=
EXTT9=
PLAYORDER=
